<?xml version="1.0" standalone="no"?>
<!DOCTYPE svg PUBLIC "-//W3C//DTD SVG 20010904//EN"
 "http://www.w3.org/TR/2001/REC-SVG-20010904/DTD/svg10.dtd">
<svg version="1.0" xmlns="http://www.w3.org/2000/svg"
 width="320.000000pt" height="200.000000pt" viewBox="0 0 320.000000 200.000000"
 preserveAspectRatio="xMidYMid meet">

<g transform="translate(0.000000,200.000000) scale(0.100000,-0.100000)"
fill="#000000" stroke="none">
<path d="M78 1979 c-23 -12 -46 -35 -58 -59 -20 -38 -20 -58 -20 -796 0 -746
0 -757 21 -793 11 -20 32 -45 47 -56 26 -19 45 -20 555 -23 l527 -3 0 -74 0
-75 -84 0 c-64 0 -88 -4 -100 -16 -20 -20 -20 -48 0 -68 13 -14 62 -16 383
-16 344 0 369 1 384 18 22 24 21 45 -1 65 -14 13 -38 17 -100 17 l-82 0 0 75
0 75 518 0 c468 1 520 2 549 18 32 17 79 69 71 78 -3 2 -579 4 -1281 4 -1151
0 -1277 1 -1291 16 -12 12 -16 36 -16 100 l0 84 1055 0 1054 0 -31 50 -31 50
-1023 0 -1024 0 0 609 c0 541 2 611 16 625 14 14 140 16 1234 16 1094 0 1220
-2 1234 -16 13 -12 16 -41 16 -150 l0 -134 50 0 50 0 0 143 c0 164 -11 197
-76 234 l-39 23 -1235 -1 c-1210 0 -1236 0 -1272 -20z m1372 -1804 l0 -75
-100 0 -100 0 0 75 0 75 100 0 100 0 0 -75z"/>
<path d="M1421 1691 c-13 -8 -38 -96 -162 -563 -61 -231 -62 -238 -44 -258 22
-25 47 -26 67 -2 14 15 218 756 218 789 0 32 -49 53 -79 34z"/>
<path d="M820 1463 c-213 -143 -235 -161 -238 -188 -2 -29 7 -36 230 -185 128
-85 239 -157 246 -158 8 -2 24 -1 38 2 32 8 33 55 2 82 -13 11 -104 74 -202
139 l-179 118 24 18 c13 10 104 71 201 136 182 121 190 129 172 177 -14 38
-60 16 -294 -141z"/>
<path d="M1591 1606 c-31 -37 -11 -57 183 -188 104 -70 193 -131 199 -137 6
-6 -56 -53 -174 -131 -101 -67 -192 -129 -201 -138 -34 -29 -17 -82 27 -82 18
0 422 258 478 305 9 8 17 27 17 42 0 25 -23 43 -233 183 -127 85 -244 156
-258 158 -14 2 -31 -3 -38 -12z"/>
<path d="M2585 1486 c-17 -7 -39 -29 -50 -50 -23 -42 -42 -51 -81 -36 -49 19
-92 3 -150 -54 -57 -58 -73 -101 -54 -150 14 -39 6 -58 -34 -80 -45 -24 -66
-69 -66 -141 0 -72 23 -122 66 -143 40 -18 48 -39 34 -78 -19 -49 -3 -92 54
-150 58 -57 101 -73 150 -54 40 15 60 6 79 -36 21 -44 66 -64 143 -64 71 0
121 23 142 66 18 40 39 48 78 34 45 -17 88 -3 143 46 60 54 80 103 62 156 -15
45 -9 59 35 83 47 25 64 61 64 135 0 77 -20 122 -66 146 -40 22 -48 41 -34 80
19 49 3 92 -54 149 -56 57 -103 73 -151 55 -38 -14 -57 -6 -79 34 -10 19 -33
42 -51 50 -40 19 -139 20 -180 2z m145 -124 c4 -30 11 -36 55 -51 28 -10 60
-24 72 -32 20 -12 25 -11 46 9 31 29 40 28 76 -13 37 -42 37 -43 11 -70 -19
-21 -19 -21 4 -80 13 -33 26 -68 29 -77 5 -13 17 -18 42 -18 l35 0 0 -55 0
-55 -35 0 c-25 0 -37 -5 -41 -17 -3 -10 -16 -45 -30 -77 l-24 -60 21 -22 c21
-22 21 -25 5 -48 -9 -14 -28 -33 -42 -42 -24 -16 -26 -16 -50 7 -22 21 -27 22
-46 10 -12 -7 -44 -21 -72 -31 -46 -15 -52 -20 -56 -51 -5 -33 -6 -34 -55 -34
-49 0 -50 1 -55 34 -4 30 -10 35 -46 46 -22 7 -55 20 -72 30 -31 19 -32 19
-56 -4 -24 -23 -26 -23 -50 -7 -14 9 -33 28 -42 42 -16 24 -16 26 7 50 21 22
22 27 10 46 -7 12 -21 44 -31 72 -16 48 -19 51 -53 54 l-37 3 0 54 0 54 36 3
c33 3 37 7 53 53 10 28 24 60 32 72 12 20 11 25 -9 46 -27 29 -22 47 25 83
l34 26 25 -23 c22 -21 27 -22 47 -10 12 8 44 22 72 32 39 13 51 23 53 41 6 46
10 49 59 46 46 -3 48 -4 53 -36z"/>
<path d="M2581 1148 c-137 -67 -136 -280 1 -347 139 -67 288 22 288 173 0 152
-150 243 -289 174z m156 -95 c56 -37 46 -134 -17 -165 -68 -34 -141 11 -143
87 -2 84 86 126 160 78z"/>
<path d="M216 494 c-9 -8 -16 -22 -16 -29 0 -13 26 -45 36 -45 3 0 14 5 25 10
25 14 25 56 0 70 -25 13 -27 13 -45 -6z"/>
<path d="M388 499 c-44 -25 -3 -93 42 -69 26 14 26 56 1 70 -23 12 -22 12 -43
-1z"/>
<path d="M1117 482 c-22 -24 -21 -45 1 -65 16 -15 48 -17 235 -17 229 0 247 4
247 50 0 46 -18 50 -249 50 -198 0 -219 -2 -234 -18z"/>
</g>
</svg>
