<?xml version="1.0" standalone="no"?>
<!DOCTYPE svg PUBLIC "-//W3C//DTD SVG 20010904//EN"
 "http://www.w3.org/TR/2001/REC-SVG-20010904/DTD/svg10.dtd">
<svg version="1.0" xmlns="http://www.w3.org/2000/svg"
 width="217.000000pt" height="232.000000pt" viewBox="0 0 217.000000 232.000000"
 preserveAspectRatio="xMidYMid meet">

<g transform="translate(0.000000,232.000000) scale(0.100000,-0.100000)"
fill="#000000" stroke="none">
<path d="M991 1659 c-100 -19 -182 -84 -224 -178 -31 -67 -29 -179 3 -246 31
-62 89 -121 149 -148 67 -31 186 -30 261 2 56 25 120 76 120 96 0 6 9 30 20
52 73 151 -9 352 -166 406 -57 20 -113 26 -163 16z m164 -63 c116 -53 175
-180 141 -299 -21 -74 -63 -127 -127 -162 -45 -25 -65 -30 -124 -30 -59 0 -79
5 -124 30 -64 35 -106 88 -127 162 -47 161 79 323 251 323 42 0 75 -7 110 -24z"/>
<path d="M1023 1555 c-30 -21 -38 -62 -17 -93 14 -22 15 -31 4 -78 -11 -43
-18 -55 -40 -63 -15 -5 -32 -6 -36 -1 -5 4 -35 24 -66 44 l-58 37 0 -29 c0
-23 9 -33 55 -61 42 -26 55 -39 55 -58 0 -13 11 -35 25 -48 60 -61 143 3 109
84 -19 44 -1 116 33 138 24 16 28 15 109 -25 l84 -42 0 25 c0 21 -12 31 -70
60 -52 26 -70 40 -70 56 0 27 -44 69 -72 69 -13 0 -33 -7 -45 -15z m71 -34
c25 -28 5 -63 -32 -59 -30 3 -42 39 -22 64 17 19 34 18 54 -5z m-63 -252 c9
-18 7 -25 -10 -43 -16 -16 -25 -18 -38 -10 -29 18 -38 41 -24 58 19 23 58 20
72 -5z"/>
<path d="M574 1525 c-13 -21 -15 -31 -6 -50 9 -20 19 -25 48 -25 20 0 51 -9
69 -20 31 -19 33 -19 39 -3 7 16 0 25 -39 51 -5 4 -17 21 -25 37 -21 41 -62
46 -86 10z m64 -29 c-2 -13 -10 -21 -23 -21 -23 0 -33 34 -14 45 20 13 40 -1
37 -24z"/>
<path d="M1370 1345 c0 -10 10 -28 23 -41 12 -13 30 -33 40 -44 22 -25 42 -25
67 0 40 40 14 84 -52 86 -23 0 -51 4 -60 8 -13 6 -18 4 -18 -9z m118 -53 c3
-18 -1 -22 -22 -22 -19 0 -26 5 -26 18 0 39 43 43 48 4z"/>
<path d="M1282 1127 c-17 -18 -32 -37 -32 -42 1 -16 205 -235 239 -256 34 -21
71 -25 71 -8 0 5 4 8 10 4 5 -3 17 6 26 20 16 24 16 29 1 60 -15 31 -245 247
-270 253 -7 1 -27 -12 -45 -31z"/>
<path d="M0 75 l0 -75 1085 0 1085 0 0 75 0 75 -1085 0 -1085 0 0 -75z m183
30 c43 0 47 -2 48 -25 1 -23 2 -23 9 5 7 28 8 27 9 -12 1 -35 -2 -43 -16 -43
-15 0 -16 2 -3 10 13 8 12 10 -2 10 -12 0 -19 8 -19 23 -2 20 -2 20 -7 -3 l-5
-25 -8 25 c-7 24 -7 24 -8 3 -1 -21 -6 -23 -51 -23 -51 0 -60 6 -38 28 9 9 9
12 -1 12 -7 0 -9 5 -6 11 4 6 13 8 21 5 8 -3 14 0 14 7 0 8 3 8 8 2 4 -6 28
-10 55 -10z m1735 -52 c-10 -2 -28 -2 -40 0 -13 2 -5 4 17 4 22 1 32 -1 23 -4z
m70 0 c-10 -2 -26 -2 -35 0 -10 3 -2 5 17 5 19 0 27 -2 18 -5z m90 0 c-10 -2
-26 -2 -35 0 -10 3 -2 5 17 5 19 0 27 -2 18 -5z"/>
<path d="M130 79 c0 -5 5 -7 10 -4 6 3 10 8 10 11 0 2 -4 4 -10 4 -5 0 -10 -5
-10 -11z"/>
</g>
</svg>
