<?xml version="1.0" standalone="no"?>
<!DOCTYPE svg PUBLIC "-//W3C//DTD SVG 20010904//EN"
 "http://www.w3.org/TR/2001/REC-SVG-20010904/DTD/svg10.dtd">
<svg version="1.0" xmlns="http://www.w3.org/2000/svg"
 width="920.000000pt" height="512.000000pt" viewBox="0 0 920.000000 512.000000"
 preserveAspectRatio="xMidYMid meet">

<g transform="translate(0.000000,512.000000) scale(0.100000,-0.100000)"
fill="#000000" stroke="none">
<path d="M4885 5095 c22 -64 26 -88 26 -162 0 -217 -134 -399 -556 -751 -236
-197 -421 -377 -480 -467 -87 -133 -111 -250 -81 -388 52 -233 274 -521 601
-781 136 -108 133 -106 112 -74 -121 190 -325 621 -345 730 -18 93 18 205 102
322 55 75 135 166 335 378 229 242 338 398 390 558 52 161 47 308 -14 470 -23
59 -106 212 -90 165z"/>
<path d="M5600 4204 c-293 -45 -543 -134 -720 -254 -77 -52 -186 -164 -228
-233 -18 -31 -45 -88 -60 -129 -24 -65 -27 -87 -27 -198 0 -124 0 -126 38
-205 21 -44 74 -135 118 -202 106 -162 132 -227 127 -313 -5 -86 -49 -179
-125 -260 -30 -33 -50 -60 -45 -60 6 0 40 10 75 23 213 78 356 225 388 401 20
113 -1 189 -118 417 -89 173 -110 249 -92 327 33 146 250 347 739 684 14 9 23
17 20 16 -3 0 -43 -6 -90 -14z"/>
<path d="M5868 2539 c-65 -9 -159 -46 -213 -82 l-37 -25 89 -4 c106 -4 176
-32 240 -97 76 -76 91 -173 48 -308 -47 -150 -211 -359 -394 -503 -45 -35 -79
-65 -77 -68 7 -7 112 18 209 49 303 99 493 270 552 499 12 47 16 94 13 170 -3
92 -7 113 -34 171 -51 108 -140 177 -254 199 -58 11 -61 11 -142 -1z"/>
<path d="M3690 2533 c-365 -25 -624 -104 -676 -205 -49 -95 13 -178 176 -232
368 -121 1130 -123 1850 -5 l185 30 130 100 c165 126 197 152 170 145 -81 -22
-458 -66 -755 -88 -230 -16 -956 -17 -1064 0 -102 16 -157 32 -163 49 -9 22
45 71 113 103 55 26 190 73 284 99 27 7 8 9 -85 8 -66 0 -140 -2 -165 -4z"/>
<path d="M3606 1945 c-129 -45 -221 -124 -233 -200 -5 -33 -2 -40 43 -83 181
-175 856 -244 1424 -147 173 29 484 117 513 145 5 4 -56 47 -133 95 l-142 88
-107 -26 c-194 -48 -386 -73 -611 -80 -358 -12 -636 47 -664 139 -4 14 2 33
19 57 l24 37 -32 0 c-18 0 -63 -11 -101 -25z"/>
<path d="M3782 1424 c-91 -24 -160 -70 -204 -136 -69 -103 -9 -194 165 -253
390 -131 1106 -77 1480 111 l68 35 -158 104 -158 104 -72 -25 c-167 -56 -429
-94 -654 -94 -294 0 -433 54 -374 144 17 26 17 26 -11 25 -16 0 -53 -7 -82
-15z"/>
<path d="M2990 1146 c-259 -55 -404 -199 -341 -340 63 -144 240 -244 576 -327
289 -71 641 -104 1095 -103 401 1 682 24 980 80 441 83 713 210 800 374 36 68
29 153 -18 204 -23 24 -123 96 -135 96 -2 0 1 -22 6 -49 37 -177 -189 -321
-627 -401 -269 -49 -412 -61 -791 -67 -477 -7 -806 20 -1108 91 -315 75 -425
196 -263 291 72 42 142 58 253 59 l102 0 -92 50 -92 50 -140 3 c-89 1 -164 -3
-205 -11z"/>
<path d="M6435 643 c-224 -200 -615 -359 -1076 -437 -275 -47 -433 -59 -759
-60 -431 0 -812 40 -1199 124 -51 11 -96 19 -98 16 -4 -4 15 -11 191 -72 270
-94 598 -161 946 -195 184 -18 634 -15 810 5 525 59 939 208 1122 402 45 49
96 143 108 201 7 30 10 56 8 58 -1 1 -25 -17 -53 -42z"/>
</g>
</svg>
