<?xml version="1.0" standalone="no"?>
<!DOCTYPE svg PUBLIC "-//W3C//DTD SVG 20010904//EN"
 "http://www.w3.org/TR/2001/REC-SVG-20010904/DTD/svg10.dtd">
<svg version="1.0" xmlns="http://www.w3.org/2000/svg"
 width="1600.000000pt" height="1689.000000pt" viewBox="0 0 1600.000000 1689.000000"
 preserveAspectRatio="xMidYMid meet">

<g transform="translate(0.000000,1689.000000) scale(0.100000,-0.100000)"
fill="#000000" stroke="none">
<path d="M4536 13849 c-98 -23 -264 -133 -252 -166 3 -8 1 -11 -4 -8 -12 8
-58 -65 -84 -135 -21 -54 -21 -70 -24 -893 l-3 -838 29 32 c18 20 35 30 47 27
18 -3 15 -8 -19 -41 -21 -20 -42 -34 -47 -31 -5 3 -8 -540 -7 -1268 0 -700 4
-1245 7 -1211 7 75 34 108 126 154 l60 30 6 -43 c3 -24 6 576 6 1332 0 756 -3
1353 -6 1326 -5 -44 -7 -48 -20 -32 -27 33 -10 109 21 90 4 -3 8 275 8 618 0
394 4 637 10 660 18 62 71 128 130 162 l55 31 3420 0 3420 0 41 -22 c48 -26
110 -91 132 -142 16 -33 17 -233 22 -2454 l5 -2419 28 -24 c51 -43 134 -27
162 31 13 30 15 285 15 2412 0 1496 -4 2400 -10 2438 -29 177 -185 344 -361
384 -57 13 -6857 13 -6913 0z m3114 -3 c0 -2 -8 -10 -17 -17 -16 -13 -17 -12
-4 4 13 16 21 21 21 13z m-3010 -19 c0 -2 -15 -16 -32 -33 l-33 -29 29 33 c28
30 36 37 36 29z m4484 -11 c-3 -8 -13 -17 -22 -21 -13 -5 -13 -2 3 15 21 24
26 25 19 6z m-1523 -19 c-10 -9 -11 -8 -5 6 3 10 9 15 12 12 3 -3 0 -11 -7
-18z m2833 -13 c7 -19 2 -18 -19 6 -16 17 -16 20 -3 15 9 -4 19 -13 22 -21z
m-2913 -60 c2 3 9 -6 16 -20 6 -13 10 -24 9 -24 -1 0 -22 21 -46 47 -25 26
-31 35 -14 20 17 -15 32 -25 35 -23z m-3001 -21 c0 -5 -13 -17 -27 -27 l-27
-20 20 27 c18 26 34 35 34 20z m6000 -3 c0 -5 -4 -10 -10 -10 -5 0 -10 5 -10
10 0 6 5 10 10 10 6 0 10 -4 10 -10z m-3011 -3 c-2 -1 -13 -9 -24 -17 -19 -14
-19 -14 -6 3 7 9 18 17 24 17 6 0 8 -1 6 -3z m1491 0 c0 -2 -10 -12 -22 -23
l-23 -19 19 23 c18 21 26 27 26 19z m1551 -24 c13 -16 12 -17 -3 -4 -10 7 -18
15 -18 17 0 8 8 3 21 -13z m-6121 -56 c0 -2 -10 -12 -22 -23 l-23 -19 19 23
c18 21 26 27 26 19z m-210 -210 c0 -2 -10 -12 -22 -23 l-23 -19 19 23 c18 21
26 27 26 19z m7460 -31 c0 -2 -7 -7 -16 -10 -8 -3 -12 -2 -9 4 6 10 25 14 25
6z m-7345 -1347 c19 -17 35 -37 35 -45 0 -20 -8 -18 -47 16 -37 33 -52 37 -71
18 -33 -33 11 -89 51 -66 17 9 37 3 37 -11 0 -14 -51 -31 -75 -25 -53 13 -74
99 -33 128 34 24 63 19 103 -15z m7426 -72 c-10 -9 -11 -8 -5 6 3 10 9 15 12
12 3 -3 0 -11 -7 -18z m-106 -107 c-3 -5 -12 -10 -18 -10 -7 0 -6 4 3 10 19
12 23 12 15 0z m25 -805 c30 -30 52 -55 49 -55 -2 0 -29 25 -59 55 -30 30 -52
55 -49 55 2 0 29 -25 59 -55z m-7455 -35 c10 -11 16 -20 13 -20 -3 0 -13 9
-23 20 -10 11 -16 20 -13 20 3 0 13 -9 23 -20z m7555 -65 c19 -19 32 -35 29
-35 -3 0 -20 16 -39 35 -19 19 -32 35 -29 35 3 0 20 -16 39 -35z m-7410 -379
c0 -2 -8 -10 -17 -17 -16 -13 -17 -12 -4 4 13 16 21 21 21 13z m-155 -156 c-3
-5 -12 -10 -18 -10 -7 0 -6 4 3 10 19 12 23 12 15 0z m7466 -33 c-10 -9 -11
-8 -5 6 3 10 9 15 12 12 3 -3 0 -11 -7 -18z m-21 -1530 c0 -2 -10 -12 -22 -23
l-23 -19 19 23 c18 21 26 27 26 19z"/>
<path d="M5470 13186 c-146 -41 -249 -140 -291 -278 -46 -151 -5 -306 110
-417 83 -80 154 -106 286 -106 92 0 106 3 167 32 185 88 274 279 222 478 -55
214 -285 349 -494 291z m-3 -22 c-3 -3 -12 -4 -19 -1 -8 3 -5 6 6 6 11 1 17
-2 13 -5z m-67 -57 c0 -2 -17 -19 -37 -38 -20 -18 -31 -25 -23 -14 20 26 60
61 60 52z m-123 -119 c13 15 13 15 4 -4 -7 -15 -7 -24 1 -32 9 -9 9 -12 1 -12
-6 0 -13 6 -16 13 -3 9 -8 8 -23 -3 -17 -14 -18 -14 -6 2 9 11 10 18 2 23 -5
3 -10 11 -10 18 0 6 7 4 17 -5 15 -16 17 -16 30 0z m348 -9 c52 -15 119 -82
135 -136 49 -161 -121 -304 -277 -234 -82 38 -130 145 -104 233 16 52 75 115
126 133 49 17 69 18 120 4z m-396 -52 c-2 -1 -15 -11 -29 -22 l-25 -20 19 23
c11 12 24 22 29 22 6 0 8 -1 6 -3z"/>
<path d="M6520 13186 c-153 -44 -256 -152 -296 -307 -27 -107 -2 -242 61 -325
27 -35 27 -35 49 -17 l21 18 -20 -23 -20 -24 35 -30 c19 -16 64 -43 100 -61
136 -66 328 -41 437 56 12 11 20 24 16 30 -3 6 -1 7 5 3 14 -8 66 59 93 120
30 69 37 195 15 277 -33 120 -128 223 -246 268 -68 26 -188 33 -250 15z m341
-129 l-24 -22 19 27 c10 14 21 24 23 22 3 -3 -6 -15 -18 -27z m-147 -93 c26
-13 31 -12 50 3 20 17 20 17 5 -1 -16 -17 -15 -21 14 -62 25 -36 32 -56 34
-107 5 -76 -20 -126 -84 -171 -75 -52 -162 -47 -242 15 -20 16 -27 17 -40 7
-14 -11 -14 -11 -3 4 11 14 11 21 -1 45 -41 79 -27 164 38 229 63 62 151 77
229 38z m-339 -394 c-3 -5 -12 -10 -18 -10 -7 0 -6 4 3 10 19 12 23 12 15 0z"/>
<path d="M7570 13184 c-137 -37 -239 -135 -285 -273 -26 -78 -18 -217 16 -291
33 -72 79 -126 90 -108 6 9 37 13 111 13 90 0 110 -3 158 -26 66 -31 138 -94
118 -103 -7 -3 -2 -3 12 0 143 34 263 169 290 327 51 289 -224 538 -510 461z
m165 -205 c25 -7 56 -27 81 -54 89 -92 76 -225 -29 -300 -37 -27 -50 -30 -114
-30 -65 0 -75 3 -110 31 -124 100 -109 275 30 339 58 28 83 30 142 14z"/>
<path d="M7480 12430 c0 -8 27 -19 89 -39 19 -6 59 -10 90 -10 51 1 53 2 21 9
-19 4 -48 13 -65 20 -37 15 -135 29 -135 20z"/>
<path d="M7633 11795 c-42 -18 -51 -38 -112 -260 -29 -104 -59 -210 -65 -235
l-13 -45 -229 -5 c-126 -3 -231 -7 -234 -8 -3 -1 2 -7 10 -12 12 -8 9 -10 -10
-8 -20 3 -29 -4 -43 -34 -16 -32 -17 -43 -7 -73 6 -19 23 -44 37 -55 24 -18
40 -20 219 -20 107 0 194 -2 194 -5 0 -5 -123 -453 -136 -497 -5 -16 -24 -18
-225 -18 -177 0 -226 -3 -249 -15 -30 -16 -60 -61 -60 -90 0 -31 31 -82 56
-94 16 -7 95 -11 220 -11 181 0 195 -1 190 -17 -8 -26 -74 -263 -101 -363 -13
-47 -35 -129 -49 -182 -25 -89 -26 -100 -12 -132 15 -37 59 -66 98 -66 37 0
85 35 97 72 5 18 44 157 86 308 42 151 83 299 91 328 l15 52 335 0 c315 0 335
-1 330 -17 -24 -83 -28 -114 -15 -131 13 -15 12 -16 -3 -3 -10 7 -18 10 -18 6
0 -4 -29 -112 -65 -240 -36 -129 -65 -236 -65 -239 0 -3 7 -3 15 0 19 8 111
-79 101 -95 -5 -8 -21 1 -52 29 -24 22 -48 40 -54 40 -14 0 -12 -42 3 -60 70
-90 178 -52 201 70 6 29 5 33 -6 20 -7 -8 -28 -17 -45 -18 -25 -3 -39 3 -58
24 -14 15 -25 37 -25 48 0 36 28 66 61 66 27 0 29 -2 29 -40 0 -29 -4 -40 -15
-40 -9 0 -15 10 -15 26 0 14 -4 23 -10 19 -14 -9 -13 -48 2 -63 17 -17 43 -15
58 3 7 9 19 14 25 11 13 -4 18 11 131 417 l47 167 174 0 c194 0 221 7 243 60
19 45 -1 105 -43 130 -28 17 -51 20 -176 20 -110 0 -142 3 -138 13 2 6 35 123
73 260 l69 247 177 0 c109 0 186 4 202 11 60 28 71 122 20 170 -24 23 -33 24
-180 27 -110 2 -154 7 -154 15 0 7 25 102 55 212 30 110 55 214 55 231 0 40
-31 80 -74 94 -48 15 -101 -7 -120 -52 -15 -33 -120 -403 -132 -465 l-6 -33
-338 0 -338 0 29 108 c106 384 106 385 40 429 -39 26 -54 28 -98 8z m917 -71
c-8 -8 -23 -20 -34 -26 -14 -6 -11 -1 8 16 32 29 45 34 26 10z m-70 -68 c0 -3
-4 -8 -10 -11 -5 -3 -10 -1 -10 4 0 6 5 11 10 11 6 0 10 -2 10 -4z m144 -565
c-3 -3 -15 6 -27 18 l-22 24 27 -19 c14 -10 24 -21 22 -23z m-354 -59 c0 -7
-81 -302 -126 -459 l-15 -53 -334 0 c-184 0 -335 2 -335 4 0 2 18 66 39 142
21 77 53 192 71 257 l32 117 334 0 c184 0 334 -4 334 -8z m-899 -485 l-24 -22
19 27 c10 14 21 24 23 22 3 -3 -6 -15 -18 -27z m-90 -90 c-10 -9 -11 -8 -5 6
3 10 9 15 12 12 3 -3 0 -11 -7 -18z m1429 -40 c0 -2 -17 -19 -37 -38 -34 -30
-35 -31 -13 -4 29 35 50 52 50 42z m-1509 -40 c-10 -9 -11 -8 -5 6 3 10 9 15
12 12 3 -3 0 -11 -7 -18z m999 -357 c0 -5 -2 -10 -4 -10 -3 0 -8 5 -11 10 -3
6 -1 10 4 10 6 0 11 -4 11 -10z m-1040 -443 c0 -4 -16 8 -35 29 -19 20 -35 39
-35 42 0 3 16 -9 35 -28 19 -19 35 -38 35 -43z"/>
<path d="M5540 11690 c-80 -12 -125 -29 -189 -70 -44 -29 -61 -45 -57 -56 3
-8 2 -13 -3 -9 -21 12 -69 -88 -92 -190 -6 -27 -14 -156 -19 -285 -5 -129 -14
-260 -21 -290 -29 -133 -82 -203 -195 -256 -40 -18 -79 -43 -88 -55 -37 -54
-5 -162 51 -175 102 -22 149 -52 187 -117 46 -78 56 -144 66 -427 6 -174 15
-287 25 -329 49 -205 191 -301 444 -301 93 0 98 2 124 40 24 35 21 84 -6 116
-21 24 -33 27 -118 35 -109 10 -165 28 -202 67 -54 56 -60 88 -68 347 -11 384
-44 501 -174 624 l-56 53 47 41 c137 120 183 289 184 672 0 88 5 180 11 205
25 110 95 160 239 170 47 4 95 12 107 18 24 13 45 73 36 100 -12 40 -27 60
-50 71 -26 12 -111 13 -183 1z m-91 -53 c-2 -1 -14 -11 -26 -21 -13 -11 -23
-16 -23 -13 0 10 31 37 42 37 6 0 9 -1 7 -3z m-89 -82 c-7 -8 -17 -15 -23 -15
-6 0 -2 7 9 15 25 19 30 19 14 0z m-65 -127 c38 -41 38 -42 4 -10 -34 31 -37
32 -53 17 -9 -9 -16 -14 -16 -11 0 5 23 46 25 46 1 0 19 -19 40 -42z m74 -82
c-3 -3 -11 5 -18 17 -13 21 -12 21 5 5 10 -10 16 -20 13 -22z m-106 -1386 c-1
-3 -12 -11 -25 -19 -22 -13 -22 -12 -4 3 19 16 19 17 -20 58 l-39 42 45 -39
c25 -22 44 -42 43 -45z m28 -27 c13 -16 12 -17 -3 -4 -10 7 -18 15 -18 17 0 8
8 3 21 -13z m49 -48 c13 -14 21 -25 18 -25 -2 0 -15 11 -28 25 -13 14 -21 25
-18 25 2 0 15 -11 28 -25z"/>
<path d="M9128 9636 c-68 -18 -102 -49 -203 -182 l-90 -118 -50 4 c-89 9 -258
1 -331 -14 -59 -13 -151 -43 -215 -70 -11 -5 -51 20 -127 79 -133 102 -178
124 -251 125 -50 0 -53 -1 -35 -14 14 -11 16 -18 8 -26 -9 -9 -16 -6 -27 10
-21 30 -52 21 -108 -31 -24 -22 -39 -38 -32 -35 6 4 14 2 18 -4 3 -5 14 -10
24 -10 21 0 34 33 19 48 -6 6 -5 12 3 17 14 9 39 -20 39 -45 0 -43 -73 -66
-105 -34 -9 9 -17 15 -19 13 -2 -2 -15 -21 -29 -42 -14 -20 -37 -52 -52 -70
-82 -100 -94 -120 -78 -132 10 -7 13 -17 8 -25 -6 -10 -10 -9 -17 4 -13 23
-21 20 -41 -14 -10 -17 -13 -30 -8 -30 6 0 11 -7 11 -15 0 -13 -4 -14 -20 -5
-16 9 -22 6 -35 -21 -9 -17 -12 -28 -6 -25 6 4 11 2 11 -3 0 -6 -7 -11 -16
-11 -45 0 -56 -148 -16 -226 24 -47 47 -68 179 -169 l103 -77 -7 -117 c-7
-136 13 -285 54 -391 40 -105 40 -102 -12 -169 -26 -35 -43 -66 -39 -73 4 -6
3 -8 -4 -5 -11 7 -66 -63 -98 -123 -26 -50 -24 -153 3 -205 26 -49 57 -78 198
-186 286 -219 293 -223 365 -234 52 -7 125 12 174 46 18 12 73 76 122 141 l89
119 110 -6 c163 -10 326 19 495 88 9 4 29 -5 50 -22 l35 -29 -22 -24 c-59 -63
-82 -183 -49 -261 25 -60 265 -439 304 -479 50 -53 106 -72 190 -66 71 5 81
10 274 134 l66 43 54 -29 c121 -66 302 -109 458 -110 l95 -1 33 -54 33 -55 26
30 c23 28 53 40 53 21 0 -13 -53 -66 -63 -63 -5 1 -6 -2 -2 -8 3 -6 10 -8 14
-5 5 2 16 -4 26 -15 33 -37 76 -20 55 21 -17 32 3 47 24 18 19 -28 20 -48 3
-70 -22 -29 -53 -32 -78 -7 l-22 23 23 -40 c36 -61 61 -86 115 -111 60 -28
159 -33 205 -9 74 38 438 271 467 298 48 45 73 106 73 176 0 66 -24 121 -122
274 l-57 88 29 52 c69 127 110 300 110 462 0 90 1 92 27 104 36 17 213 130
241 155 43 37 72 109 72 175 0 33 -5 72 -11 88 -18 48 -231 383 -240 377 -5
-3 -6 1 -3 9 7 20 -53 95 -105 132 -40 28 -49 30 -130 30 -86 0 -87 0 -164
-48 -42 -27 -75 -53 -72 -58 4 -5 0 -7 -7 -4 -7 3 -37 -10 -67 -29 l-53 -33
-42 23 c-118 66 -267 105 -435 113 l-124 6 -76 122 c-42 66 -85 131 -96 143
-35 40 -114 70 -180 70 -71 0 -107 -15 -230 -95 -177 -114 -195 -123 -195 -89
0 6 38 61 83 120 114 149 122 163 122 254 0 113 -21 143 -197 276 -79 59 -170
129 -204 155 -113 87 -187 110 -276 85z m242 -70 c0 -3 -4 -8 -10 -11 -5 -3
-10 -1 -10 4 0 6 5 11 10 11 6 0 10 -2 10 -4z m33 -281 c103 -77 189 -148 192
-157 4 -12 -30 -65 -109 -170 -133 -176 -137 -187 -86 -288 36 -70 36 -74 10
-128 -24 -50 -26 -137 -5 -188 8 -20 31 -63 52 -97 31 -52 38 -58 48 -43 7 9
16 16 20 16 5 0 0 -9 -9 -19 -17 -19 -16 -22 17 -73 l34 -54 -28 -57 c-69
-135 -109 -304 -109 -456 l0 -97 -34 -17 c-30 -14 -36 -14 -47 -1 -7 8 -18 13
-25 10 -8 -3 -13 0 -11 6 4 19 -163 138 -193 138 -15 0 -61 -15 -102 -34 -166
-76 -310 -97 -481 -71 -90 13 -112 14 -135 3 -15 -7 -64 -63 -110 -123 -121
-160 -153 -197 -166 -192 -7 3 -61 42 -120 87 -69 52 -111 78 -115 71 -5 -7
-16 -2 -31 14 -13 14 -20 25 -16 25 5 0 3 7 -4 15 -7 9 -19 14 -27 11 -8 -3
-12 -2 -9 3 3 4 -12 20 -32 36 -20 15 -48 42 -62 59 -13 17 -17 25 -7 17 10
-8 21 -10 26 -5 26 30 190 251 209 282 28 45 25 62 -26 177 -66 150 -86 315
-58 475 14 82 8 122 -22 148 -11 10 -81 63 -156 120 -75 56 -136 109 -136 116
0 12 77 116 261 354 22 28 47 52 56 52 8 0 77 -47 152 -103 75 -57 146 -109
158 -115 35 -19 66 -14 144 23 115 54 216 77 344 77 61 1 135 -5 166 -12 78
-17 114 -4 162 60 21 28 35 56 31 62 -4 6 -3 8 3 5 6 -4 45 37 87 93 62 80 80
98 95 92 10 -4 102 -70 204 -147z m-1773 -56 c0 -4 -9 -17 -19 -30 -22 -28
-41 -18 -23 12 7 11 10 24 7 29 -4 6 -3 15 1 22 5 7 11 5 21 -7 7 -11 13 -22
13 -26z m-70 -93 c-13 -13 -45 17 -35 34 5 8 12 6 26 -6 13 -12 16 -21 9 -28z
m2585 -570 c53 -85 105 -162 117 -172 18 -17 35 -19 147 -16 190 5 312 -25
471 -114 43 -24 86 -44 96 -44 25 0 105 40 99 50 -3 4 3 7 13 6 9 0 16 4 15
10 -1 6 27 39 63 75 35 35 64 60 64 57 0 -4 -27 -35 -60 -68 -34 -33 -58 -60
-55 -60 3 0 52 30 110 66 57 36 112 64 122 62 21 -4 273 -400 273 -429 0 -12
-48 -47 -154 -114 -84 -53 -162 -105 -172 -116 -17 -19 -19 -35 -16 -141 6
-193 -26 -326 -114 -479 -24 -42 -44 -87 -44 -101 0 -14 43 -94 101 -187 55
-89 99 -169 97 -178 -4 -20 -401 -273 -428 -273 -11 0 -28 16 -41 38 -66 109
-132 204 -144 208 -8 3 -11 12 -9 19 3 7 -8 28 -25 47 l-29 33 -129 -3 c-192
-5 -324 28 -483 119 -37 21 -78 39 -91 39 -21 0 -162 -80 -294 -168 -27 -18
-59 -31 -70 -30 -10 2 -30 19 -43 38 -13 19 -28 34 -34 32 -5 -1 -7 2 -3 8 4
6 -39 83 -94 171 -56 88 -101 169 -101 179 0 11 9 24 20 30 11 6 17 16 14 22
-4 7 -3 8 4 4 12 -7 258 142 288 175 17 19 19 35 16 148 -5 193 27 321 119
481 56 97 57 91 -48 257 l-64 102 -27 -28 c-15 -15 -20 -18 -11 -6 29 37 30
44 7 85 -17 29 -20 44 -13 56 15 23 397 262 421 263 18 1 41 -30 119 -153z
m1255 20 c0 -3 -4 -8 -10 -11 -5 -3 -10 -1 -10 4 0 6 5 11 10 11 6 0 10 -2 10
-4z m-1734 -42 c18 -14 18 -14 -6 -3 -31 14 -36 19 -24 19 6 0 19 -7 30 -16z
m1525 -1 c13 -16 12 -17 -3 -4 -17 13 -22 21 -14 21 2 0 10 -8 17 -17z m93
-75 c-4 -6 1 -17 11 -25 11 -7 13 -13 6 -13 -7 0 -20 7 -28 16 -14 13 -14 17
-2 25 19 12 22 11 13 -3z m246 -274 c0 -11 -49 48 -50 59 0 5 11 -5 25 -21 14
-17 25 -34 25 -38z m35 -24 c3 -6 -1 -7 -9 -4 -18 7 -21 14 -7 14 6 0 13 -4
16 -10z m-3695 -108 c0 -4 -10 -13 -22 -21 -23 -14 -23 -14 -4 8 20 22 26 25
26 13z m-271 -432 c11 -24 11 -24 -3 -6 -9 11 -16 24 -16 30 0 12 5 7 19 -24z
m1201 -144 c0 -2 -7 -7 -16 -10 -8 -3 -12 -2 -9 4 6 10 25 14 25 6z m-880
-160 c0 -3 -4 -8 -10 -11 -5 -3 -10 -1 -10 4 0 6 5 11 10 11 6 0 10 -2 10 -4z
m41 -53 c13 -16 12 -17 -3 -4 -10 7 -18 15 -18 17 0 8 8 3 21 -13z m54 -53
c10 -11 16 -20 13 -20 -3 0 -13 9 -23 20 -10 11 -16 20 -13 20 3 0 13 -9 23
-20z m65 -65 c19 -19 32 -35 29 -35 -3 0 -20 16 -39 35 -19 19 -32 35 -29 35
3 0 20 -16 39 -35z m3126 -132 c-4 -5 -66 50 -66 58 0 4 16 -7 35 -24 19 -17
33 -32 31 -34z m128 13 c-3 -8 -12 -17 -20 -20 -11 -4 -12 -2 -1 14 14 23 29
27 21 6z m-55 -53 c-7 -10 -28 -31 -48 -48 l-36 -29 30 34 c28 32 56 59 63 60
1 0 -3 -8 -9 -17z m106 -133 c10 -11 16 -20 13 -20 -3 0 -13 9 -23 20 -10 11
-16 20 -13 20 3 0 13 -9 23 -20z m-1495 0 c0 -5 -2 -10 -4 -10 -3 0 -8 5 -11
10 -3 6 -1 10 4 10 6 0 11 -4 11 -10z m31 -37 c13 -17 13 -17 -6 -3 -11 8 -22
16 -24 17 -2 2 0 3 6 3 6 0 17 -8 24 -17z m44 -43 c10 -11 16 -20 13 -20 -3 0
-13 9 -23 20 -10 11 -16 20 -13 20 3 0 13 -9 23 -20z m-435 -53 c0 -2 -12 -14
-27 -28 l-28 -24 24 28 c23 25 31 32 31 24z m515 -27 c10 -11 16 -20 13 -20
-3 0 -13 9 -23 20 -10 11 -16 20 -13 20 3 0 13 -9 23 -20z m645 -20 c0 -5 -10
-10 -23 -10 -53 0 -82 -65 -41 -94 24 -18 68 -5 72 21 4 24 -22 48 -43 39 -20
-7 -19 -32 1 -40 12 -4 15 -2 10 9 -3 8 -1 15 5 15 17 0 5 -34 -13 -38 -34 -7
-46 59 -13 72 61 23 99 -73 40 -104 -68 -36 -128 59 -73 117 22 23 78 33 78
13z m-556 -67 c8 -20 3 -16 -35 24 l-34 37 32 -25 c17 -13 34 -30 37 -36z
m-694 23 c0 -2 -8 -10 -17 -17 -16 -13 -17 -12 -4 4 13 16 21 21 21 13z m-42
-41 c-3 -3 -9 2 -12 12 -6 14 -5 15 5 6 7 -7 10 -15 7 -18z m1390 -96 c29 -28
50 -55 46 -60 -7 -11 -21 -2 -76 50 -35 32 -49 61 -30 61 4 0 31 -23 60 -51z"/>
<path d="M8510 8847 c-102 -31 -175 -74 -247 -149 -104 -109 -153 -232 -153
-383 0 -151 55 -286 158 -389 192 -194 495 -220 717 -61 81 57 128 112 171
200 138 280 29 609 -246 743 -136 67 -263 79 -400 39z m115 -25 l-28 -27 24
31 c13 17 26 30 28 27 3 -2 -8 -16 -24 -31z m-165 -165 c0 -2 -12 -14 -27 -28
l-28 -24 24 28 c23 25 31 32 31 24z m341 -29 c142 -65 226 -222 199 -370 -22
-117 -90 -204 -200 -257 -46 -22 -68 -26 -140 -26 -72 1 -94 5 -142 28 -74 36
-150 119 -178 195 -70 186 46 402 244 453 56 15 159 4 217 -23z m-432 -65 c-6
-10 -23 -27 -37 -37 -21 -15 -20 -12 7 17 38 41 47 46 30 20z m-174 -33 c10
-11 16 -20 13 -20 -3 0 -13 9 -23 20 -10 11 -16 20 -13 20 3 0 13 -9 23 -20z
m85 -45 c24 21 27 14 4 -9 -14 -15 -14 -17 0 -32 23 -22 20 -30 -4 -9 -17 15
-22 16 -37 4 -16 -13 -17 -12 -4 4 12 15 11 20 -5 40 l-19 22 23 -19 c21 -18
23 -18 42 -1z"/>
<path d="M7860 7375 c7 -8 17 -15 22 -15 6 0 5 7 -2 15 -7 8 -17 15 -22 15 -6
0 -5 -7 2 -15z"/>
<path d="M10390 8110 c-74 -9 -123 -26 -197 -66 -49 -27 -61 -39 -58 -54 2
-12 0 -18 -6 -15 -5 4 -7 11 -4 16 16 25 -16 4 -57 -38 -173 -177 -211 -438
-95 -658 65 -123 195 -227 337 -269 89 -27 231 -23 324 9 230 77 378 281 378
522 0 158 -51 284 -161 394 -121 122 -292 181 -461 159z m-146 -136 c3 -8 2
-12 -4 -9 -6 3 -10 10 -10 16 0 14 7 11 14 -7z m555 3 c-2 -1 -15 -11 -29 -22
l-25 -20 19 23 c11 12 24 22 29 22 6 0 8 -1 6 -3z m-496 -70 c-3 -4 -6 -7 -7
-5 -1 2 -8 12 -16 22 -14 18 -14 18 7 6 12 -8 19 -18 16 -23z m417 0 c0 -2
-15 -16 -32 -33 l-33 -29 29 33 c28 30 36 37 36 29z m-133 -29 c79 -29 162
-112 191 -191 29 -75 29 -177 2 -249 -25 -68 -94 -146 -161 -183 -50 -28 -62
-30 -154 -30 -90 0 -106 3 -157 29 -31 15 -73 46 -94 67 l-38 39 -41 -37 -40
-38 37 40 38 40 -25 60 c-32 79 -34 180 -4 262 28 76 113 162 190 191 75 29
180 29 256 0z m-529 -642 c-7 -8 -15 -12 -17 -11 -5 6 10 25 20 25 5 0 4 -6
-3 -14z"/>
<path d="M4361 9397 c-108 -93 -137 -150 -129 -249 7 -84 63 -175 117 -193 11
-3 22 -16 24 -28 2 -12 5 12 5 53 0 41 -2 69 -5 62 -3 -9 -11 -6 -25 10 -28
32 -38 62 -38 112 0 46 40 133 59 129 7 -2 11 18 11 57 0 33 -1 60 -2 60 -2
-1 -9 -6 -17 -13z"/>
<path d="M4371 9264 c0 -11 3 -14 6 -6 3 7 2 16 -1 19 -3 4 -6 -2 -5 -13z"/>
<path d="M4171 9064 c0 -11 3 -14 6 -6 3 7 2 16 -1 19 -3 4 -6 -2 -5 -13z"/>
<path d="M4171 8710 c-1 -307 3 -340 53 -438 31 -60 94 -135 107 -126 5 3 8 0
7 -7 -4 -17 78 -72 150 -101 l57 -23 1278 -3 1279 -2 34 34 c47 47 47 95 0
142 l-34 34 -1239 0 c-1411 0 -1306 -6 -1398 83 -77 76 -85 108 -86 381 -1
122 -4 209 -6 194 -5 -34 -14 -34 -78 -4 -48 23 -107 75 -118 106 -3 8 -6
-113 -6 -270z m858 -503 c-2 -1 -15 -11 -29 -22 l-25 -20 19 23 c11 12 24 22
29 22 6 0 8 -1 6 -3z m1471 -1 c0 -3 -4 -8 -10 -11 -5 -3 -10 -1 -10 4 0 6 5
11 10 11 6 0 10 -2 10 -4z m544 -12 c5 -14 4 -15 -9 -4 -17 14 -19 20 -6 20 5
0 12 -7 15 -16z m61 -64 c10 -11 16 -20 13 -20 -3 0 -13 9 -23 20 -10 11 -16
20 -13 20 3 0 13 -9 23 -20z m-2240 -78 l-28 -27 24 31 c13 17 26 30 28 27 3
-2 -8 -16 -24 -31z m1515 35 c0 -2 -15 -16 -32 -33 l-33 -29 29 33 c28 30 36
37 36 29z"/>
<path d="M9155 3936 c-79 -19 -142 -54 -196 -108 -89 -89 -124 -191 -116 -332
8 -154 67 -264 178 -336 163 -105 399 -85 537 44 142 133 171 403 60 559 l-20
29 -34 -33 c-19 -18 -34 -30 -34 -26 0 3 15 20 33 37 l32 31 -45 41 c-58 52
-107 76 -189 94 -79 16 -138 17 -206 0z m222 -107 c72 -28 144 -94 174 -162
20 -43 24 -69 24 -147 0 -111 -18 -161 -84 -233 -61 -66 -126 -92 -231 -92
-102 0 -156 21 -220 85 -67 67 -95 138 -95 241 0 79 3 92 35 155 75 148 240
211 397 153z"/>
<path d="M2218 3933 c-37 -9 -31 -49 51 -320 128 -420 130 -426 137 -456 3
-16 18 -35 31 -44 22 -15 28 -15 51 -2 21 11 30 30 48 99 12 47 48 184 79 305
31 121 59 227 62 235 6 16 15 -17 112 -395 58 -223 71 -255 107 -255 39 0 55
39 164 402 60 202 110 378 110 392 0 23 -24 46 -47 46 -31 0 -48 -45 -128
-324 -47 -164 -85 -305 -85 -312 0 -8 -4 -14 -8 -14 -5 0 -41 123 -81 273 -40
149 -78 289 -84 310 -11 41 -39 60 -75 50 -24 -6 -34 -32 -86 -233 -20 -74
-47 -175 -60 -225 -14 -49 -30 -110 -36 -134 -6 -23 -13 -41 -15 -39 -2 1 -42
140 -90 308 -62 218 -93 310 -107 323 -11 9 -23 16 -27 16 -3 -1 -14 -3 -23
-6z"/>
<path d="M3310 3920 c-20 -20 -20 -31 -18 -406 3 -369 4 -386 22 -400 27 -19
524 -21 548 -1 21 17 27 38 17 65 -8 22 -9 22 -244 22 l-235 0 0 135 0 135
154 0 c178 0 206 7 206 48 0 49 -11 52 -192 52 l-168 0 0 135 0 135 228 0
c125 0 232 4 238 8 24 15 26 50 5 71 -20 20 -32 21 -281 21 -247 0 -261 -1
-280 -20z m420 6 c0 -2 -8 -10 -17 -17 -16 -13 -17 -12 -4 4 13 16 21 21 21
13z m-40 -39 c0 -2 -10 -12 -22 -23 l-23 -19 19 23 c18 21 26 27 26 19z m-360
-362 c-7 -9 -15 -13 -19 -10 -3 3 1 10 9 15 21 14 24 12 10 -5z"/>
<path d="M4064 3926 c-18 -14 -19 -30 -19 -406 0 -376 1 -392 19 -406 11 -8
29 -14 40 -14 20 0 21 6 21 82 0 56 4 83 13 86 8 2 12 34 12 113 l0 109 98 0
c53 1 124 7 157 15 77 19 136 19 161 0 24 -18 40 -19 22 -1 -23 22 -78 47 -91
41 -7 -4 5 8 26 26 131 110 85 303 -85 354 -71 21 -345 22 -374 1z m338 -96
c53 -15 78 -39 89 -88 14 -62 -8 -107 -63 -132 -35 -16 -66 -20 -160 -20
l-118 0 0 125 0 125 108 0 c59 0 124 -5 144 -10z"/>
<path d="M5150 3920 c-20 -20 -21 -30 -18 -406 3 -368 4 -386 22 -400 15 -10
53 -14 146 -14 186 0 288 31 373 114 157 152 159 458 3 609 -88 86 -192 117
-393 117 -100 0 -115 -2 -133 -20z m185 -30 c21 -22 37 -40 34 -40 -3 0 -23
18 -44 40 -21 22 -37 40 -34 40 3 0 23 -18 44 -40z m-147 0 c-7 -11 -19 -22
-28 -25 -8 -4 -4 5 9 19 29 31 36 33 19 6z m308 -71 c69 -26 137 -90 166 -157
29 -64 35 -173 14 -244 -22 -75 -83 -151 -149 -185 -46 -24 -66 -28 -169 -31
l-118 -4 0 321 0 321 100 0 c77 0 112 -5 156 -21z"/>
<path d="M5990 3920 c-19 -19 -20 -33 -20 -398 0 -326 2 -381 16 -400 15 -22
18 -22 275 -22 160 0 268 4 280 10 22 12 26 59 7 78 -9 9 -76 12 -240 12
l-228 0 0 135 0 135 103 1 c56 1 125 1 152 0 72 -3 105 12 105 47 0 49 -11 52
-192 52 l-168 0 0 135 0 135 228 0 c125 0 233 4 241 9 20 13 17 62 -5 78 -14
10 -77 13 -276 13 -245 0 -259 -1 -278 -20z m80 -663 c0 -2 -12 -14 -27 -28
l-28 -24 24 28 c23 25 31 32 31 24z"/>
<path d="M6658 3929 c-10 -5 -18 -21 -18 -35 0 -29 312 -749 337 -776 20 -23
45 -23 65 0 23 25 338 753 338 779 0 27 -31 46 -63 38 -19 -5 -42 -52 -147
-298 -68 -161 -132 -312 -143 -336 l-19 -44 -25 59 c-14 32 -49 115 -78 184
-29 69 -78 188 -110 265 -67 165 -90 192 -137 164z m47 -49 c-3 -5 -16 -15
-28 -21 -22 -12 -22 -12 -3 10 19 21 43 30 31 11z m480 -320 l20 -25 -22 19
c-13 11 -23 24 -23 29 0 6 1 8 3 6 1 -2 11 -15 22 -29z"/>
<path d="M7530 3920 c-19 -19 -20 -33 -20 -370 l0 -350 25 -22 c14 -12 25 -28
25 -35 0 -17 -10 -16 -32 4 -25 22 -23 -2 2 -27 19 -19 33 -20 284 -20 199 0
266 3 274 13 20 25 23 55 7 71 -14 14 -49 16 -251 16 -149 0 -234 -4 -234 -10
0 -5 -7 -10 -15 -10 -17 0 -19 18 -6 39 7 10 0 26 -22 53 -30 37 -31 41 -17
65 8 15 21 28 28 31 15 5 16 -30 1 -45 -7 -7 -5 -15 6 -27 9 -9 21 -29 25 -44
6 -19 9 1 9 66 1 52 -3 91 -8 88 -5 -3 -14 1 -20 8 -9 11 -9 16 0 21 6 4 15 1
20 -6 6 -10 9 -6 9 14 0 27 0 27 70 27 65 0 90 10 55 24 -16 6 -21 36 -6 36 5
0 22 -13 38 -30 20 -21 37 -30 60 -30 18 0 33 3 33 6 0 4 -17 23 -37 43 -28
27 -33 37 -21 39 16 3 88 -61 88 -78 0 -13 22 -13 54 0 42 16 31 90 -13 90
-11 0 -10 -4 5 -14 10 -8 15 -18 11 -22 -10 -10 -43 11 -39 25 1 8 -45 11
-150 11 -111 0 -149 -3 -141 -11 13 -13 50 -15 78 -5 17 7 17 5 -4 -13 -29
-26 -42 -26 -73 -1 -30 23 -41 66 -22 85 10 10 14 42 14 114 l0 101 228 0
c125 0 233 4 241 9 20 13 17 62 -5 78 -14 10 -77 13 -276 13 -245 0 -259 -1
-278 -20z"/>
<path d="M8280 3920 c-20 -20 -21 -30 -18 -406 3 -368 4 -386 22 -400 16 -11
68 -14 255 -14 130 0 241 4 247 8 24 16 33 48 21 73 l-13 24 -212 3 -212 2 0
350 0 349 -22 15 c-30 21 -44 20 -68 -4z m55 -40 l30 -35 -32 29 c-18 17 -33
34 -33 40 0 5 1 7 3 5 1 -2 16 -20 32 -39z"/>
<path d="M9881 3921 c-20 -20 -20 -30 -21 -389 0 -214 4 -380 9 -395 13 -33
45 -43 76 -23 24 16 25 20 25 145 l0 129 121 4 c112 4 123 6 140 27 11 13 43
35 72 50 67 34 99 92 100 180 0 87 -19 145 -69 200 -65 72 -101 84 -280 89
-143 4 -153 3 -173 -17z m48 -134 c-2 -3 -15 10 -28 27 l-24 31 28 -27 c16
-15 27 -29 24 -31z m286 29 c55 -32 80 -81 80 -155 0 -53 -5 -72 -23 -99 -38
-53 -74 -66 -194 -70 l-108 -4 0 177 0 177 108 -4 c81 -3 114 -8 137 -22z"/>
<path d="M10550 3920 c-19 -19 -20 -33 -20 -212 l0 -193 25 -1 c58 -4 74 -13
78 -47 2 -17 5 24 6 93 l2 125 136 -272 c142 -283 152 -296 198 -270 10 5 77
129 149 276 l131 266 2 -275 c3 -266 4 -276 24 -292 28 -23 44 -23 69 2 19 19
20 33 20 375 0 272 -3 356 -12 362 -7 4 -24 22 -38 38 -22 27 -21 27 13 -4 34
-32 37 -33 37 -13 0 23 -32 62 -51 62 -39 0 -39 0 -319 -578 l-45 -93 -162
325 c-178 355 -193 376 -243 326z"/>
<path d="M11606 3927 c-15 -11 -17 -44 -16 -407 0 -358 2 -396 17 -407 12 -10
84 -13 275 -13 245 0 259 1 278 20 23 23 24 33 10 61 -10 18 -24 19 -245 19
l-235 0 0 135 0 135 165 0 c153 0 166 1 186 21 21 21 19 56 -5 71 -6 4 -86 8
-178 8 l-168 0 0 135 0 135 235 0 c221 0 235 1 245 19 14 28 13 38 -10 61 -19
19 -33 20 -278 20 -193 0 -263 -3 -276 -13z m394 -740 c0 -2 -15 -16 -32 -33
l-33 -29 29 33 c28 30 36 37 36 29z"/>
<path d="M12357 3927 c-16 -11 -18 -43 -18 -372 0 -198 1 -377 1 -398 0 -30 5
-40 25 -49 19 -9 29 -8 49 6 l26 16 2 307 3 307 189 -252 c106 -142 193 -249
199 -245 6 3 7 1 3 -5 -8 -13 67 -118 95 -132 26 -14 37 -12 59 10 19 19 20
33 20 400 0 367 -1 381 -20 400 -25 25 -41 25 -69 3 -20 -18 -21 -26 -24 -321
l-2 -303 -215 287 c-276 369 -280 373 -323 341z m574 -124 c13 -16 12 -17 -3
-4 -17 13 -22 21 -14 21 2 0 10 -8 17 -17z"/>
<path d="M13150 3920 c-23 -23 -24 -33 -10 -61 10 -17 22 -19 145 -19 l135 0
1 -317 c0 -175 3 -312 6 -305 7 19 51 14 73 -8 11 -11 22 -20 24 -20 3 0 5
145 5 323 l1 322 130 5 c101 4 133 8 140 20 15 23 12 38 -10 60 -19 19 -33 20
-320 20 -287 0 -301 -1 -320 -20z"/>
<path d="M4418 3493 c7 -3 16 -2 19 1 4 3 -2 6 -13 5 -11 0 -14 -3 -6 -6z"/>
<path d="M4535 3411 c4 -9 9 -28 12 -43 3 -16 11 -28 17 -28 6 0 28 -9 49 -20
l37 -20 0 42 0 43 -61 21 c-52 19 -59 19 -54 5z"/>
<path d="M10530 3387 c0 -31 4 -35 41 -47 22 -8 47 -23 55 -34 13 -19 14 -15
14 38 0 33 -3 57 -6 53 -3 -3 -24 1 -46 9 -56 19 -58 19 -58 -19z"/>
<path d="M4497 3245 c-15 -13 -44 -29 -65 -35 -36 -9 -38 -12 -41 -54 -1 -24
2 -47 7 -50 17 -10 86 13 103 35 9 13 21 19 28 15 15 -9 56 17 71 44 10 18 6
23 -29 39 -23 10 -38 21 -34 24 18 19 -16 3 -40 -18z"/>
<path d="M10530 3210 c0 -35 5 -52 14 -56 8 -3 17 -12 20 -20 4 -10 2 -13 -7
-8 -6 4 -4 -2 6 -12 16 -17 20 -18 45 -4 53 30 30 95 -48 135 l-30 16 0 -51z"/>
<path d="M4141 3224 c0 -11 3 -14 6 -6 3 7 2 16 -1 19 -3 4 -6 -2 -5 -13z"/>
<path d="M4202 3193 c24 -4 27 -9 30 -46 3 -41 4 -42 43 -45 l40 -3 0 51 0 50
-70 -2 c-38 0 -58 -3 -43 -5z"/>
<path d="M13440 3179 c0 -26 47 -72 66 -65 21 8 17 40 -9 64 -30 28 -57 29
-57 1z"/>
<path d="M13437 3119 c7 -7 15 -10 18 -7 3 3 -2 9 -12 12 -14 6 -15 5 -6 -5z"/>
<path d="M0 445 l0 -445 8000 0 8000 0 0 445 0 445 -8000 0 -8000 0 0 -445z
m674 251 c131 -77 184 -264 114 -406 -26 -52 -63 -89 -76 -75 -4 3 6 41 21 83
15 42 27 95 27 118 0 81 -74 183 -156 215 -44 16 -136 14 -174 -6 -88 -46
-136 -149 -111 -239 32 -117 145 -177 241 -128 103 52 107 208 5 242 -91 30
-165 -82 -95 -145 16 -15 22 -16 35 -5 9 7 14 18 12 24 -8 20 12 56 31 56 47
0 54 -77 11 -116 -27 -24 -99 -23 -137 2 -15 10 -29 18 -32 17 -3 -1 -6 6 -7
15 -1 9 -5 40 -9 69 -5 43 -3 58 17 92 52 93 194 108 266 30 41 -45 66 -117
60 -172 -15 -120 -116 -207 -241 -207 -155 0 -256 108 -256 274 0 186 125 300
321 293 72 -2 93 -7 133 -31z m574 -181 c2 -72 -2 -146 -7 -166 -17 -56 -52
-82 -111 -83 -43 -1 -54 3 -82 32 -31 30 -33 37 -33 100 0 51 5 73 20 94 37
49 108 66 120 28 7 -23 -10 -50 -30 -50 -28 0 -58 -36 -57 -69 2 -65 61 -93
102 -49 18 20 20 35 20 153 0 73 3 135 7 139 4 4 16 6 28 4 19 -3 20 -11 23
-133z m1887 100 c0 -27 -3 -30 -30 -30 -21 0 -31 5 -33 18 -6 33 6 49 35 45
24 -3 28 -8 28 -33z m-285 -46 c0 -28 0 -28 73 -31 l72 -3 0 -30 0 -30 -72 -3
-73 -3 0 -47 c0 -87 62 -127 86 -54 15 46 29 58 50 41 21 -17 14 -82 -13 -111
-44 -49 -122 -46 -154 6 -16 26 -19 51 -19 162 0 72 3 133 6 136 3 3 14 4 25
1 13 -4 19 -14 19 -34z m-1405 -59 c0 -16 -8 -29 -24 -36 -36 -18 -41 -32 -41
-115 0 -80 -13 -108 -45 -95 -12 4 -15 24 -15 94 0 110 11 145 53 166 45 22
72 17 72 -14z m251 5 c35 -23 29 -54 -21 -109 -38 -40 -48 -46 -60 -36 -21 17
-19 42 5 68 25 26 25 32 2 32 -48 0 -72 -81 -36 -121 13 -14 31 -19 75 -19 73
0 89 -6 89 -35 0 -29 -16 -35 -96 -35 -59 0 -67 3 -101 34 -33 30 -37 39 -41
92 -3 50 0 64 20 94 13 19 35 41 48 48 29 15 82 9 116 -13z m298 -2 c35 -25
46 -63 46 -160 0 -65 -3 -85 -15 -89 -31 -12 -43 14 -44 93 -1 56 -6 81 -18
95 -22 24 -58 23 -83 -4 -39 -42 -17 -110 40 -122 27 -5 31 -10 28 -33 -2 -21
-9 -29 -28 -31 -36 -4 -89 33 -106 73 -54 131 72 257 180 178z m274 12 c19
-14 24 -14 47 1 38 25 92 9 123 -35 20 -32 22 -45 20 -130 -3 -95 -3 -96 -28
-96 -25 0 -25 2 -30 94 -4 75 -9 96 -22 105 -13 8 -23 8 -35 0 -15 -9 -19 -28
-21 -103 -2 -73 -6 -93 -19 -98 -27 -10 -40 23 -42 104 -2 79 -11 103 -40 103
-32 0 -41 -22 -41 -106 0 -85 -12 -113 -45 -100 -12 4 -15 25 -15 100 0 52 5
106 11 119 23 50 94 72 137 42z m467 -20 c0 -26 -4 -30 -30 -33 -37 -5 -45
-16 -45 -70 0 -48 -19 -100 -43 -120 -8 -7 -31 -16 -50 -19 -29 -4 -37 -2 -47
16 -14 28 2 51 36 51 31 0 44 27 44 92 0 81 36 120 105 115 26 -2 30 -6 30
-32z m393 -103 c2 -116 1 -133 -14 -139 -32 -12 -44 24 -44 131 0 125 6 148
34 144 20 -3 21 -9 24 -136z m225 123 c26 -13 31 -13 50 0 46 32 111 7 136
-53 7 -16 11 -65 9 -118 -3 -88 -3 -89 -28 -89 -24 0 -25 2 -30 90 -5 97 -11
115 -39 115 -33 0 -41 -22 -41 -112 0 -71 -3 -90 -16 -95 -27 -10 -38 16 -44
104 -4 67 -9 88 -22 97 -13 8 -23 8 -35 0 -15 -9 -19 -28 -21 -97 -3 -89 -15
-116 -48 -103 -13 5 -15 22 -12 112 3 105 3 106 36 135 36 32 63 36 105 14z
m455 -5 c19 -12 32 -28 32 -40 0 -31 -71 -111 -95 -108 -28 4 -30 33 -5 65 20
26 21 28 4 32 -21 4 -64 -42 -64 -68 0 -10 9 -30 21 -45 15 -20 30 -26 57 -26
48 0 65 -12 60 -41 -3 -21 -9 -24 -48 -27 -87 -7 -140 46 -140 138 0 62 22
103 64 124 42 21 75 20 114 -4z m373 -19 c16 -16 29 -39 29 -50 0 -17 -6 -21
-35 -21 -22 0 -38 6 -41 15 -9 24 -43 29 -65 9 -13 -12 -19 -30 -19 -60 0 -66
42 -96 77 -54 11 12 30 20 50 20 27 0 33 -4 33 -21 0 -11 -13 -34 -29 -50 -24
-23 -38 -29 -75 -29 -62 0 -94 17 -117 62 -23 46 -24 85 -3 138 20 49 53 69
117 70 41 0 53 -5 78 -29z m256 12 c72 -48 69 -199 -6 -237 -34 -18 -97 -21
-136 -6 -29 11 -64 78 -65 122 0 44 30 107 59 123 36 20 116 19 148 -2z m288
3 c17 -12 22 -12 39 0 32 22 99 18 122 -7 16 -18 20 -40 22 -135 l4 -114 -41
0 -40 0 -3 96 c-2 79 -6 99 -20 108 -14 8 -21 7 -34 -6 -14 -13 -17 -35 -16
-107 l1 -91 -40 0 -39 0 0 94 c0 107 -11 128 -55 108 -24 -11 -25 -15 -25
-107 l0 -95 -40 0 -40 0 0 130 0 131 50 -2 c27 -2 53 0 57 4 12 12 79 7 98 -7z
m7613 -81 c1 -82 0 -85 -22 -85 -21 0 -23 4 -22 70 1 60 -1 70 -16 70 -33 0
-20 29 15 32 17 2 35 2 38 1 4 -1 7 -41 7 -88z m2693 48 c0 -47 1 -47 16 -25
9 12 26 22 40 22 l24 0 -22 -29 -22 -29 22 -30 c27 -38 26 -42 -2 -42 -16 0
-28 9 -37 28 l-14 27 -4 -27 c-2 -20 -9 -28 -23 -28 -17 0 -19 8 -19 90 0 83
1 90 20 90 17 0 20 -7 21 -47z m-3026 -48 c0 -74 -2 -80 -21 -83 -20 -3 -21 1
-20 83 1 80 2 85 21 83 18 -3 20 -11 20 -83z m145 65 c25 -25 27 -95 4 -128
-12 -18 -25 -22 -70 -22 l-54 0 0 85 0 85 50 0 c37 0 55 -5 70 -20z m338 11
c12 -7 18 -35 12 -56 -2 -5 0 -23 5 -38 16 -59 -74 -95 -110 -44 -15 21 -14
22 6 25 12 2 25 -2 29 -9 10 -15 43 -3 38 14 -3 6 -14 16 -26 22 -28 12 -29
35 -2 35 11 0 20 7 20 15 0 17 -25 20 -35 5 -9 -15 -35 -12 -35 3 0 32 63 50
98 28z m140 1 c7 -5 12 -27 12 -53 -1 -24 0 -52 0 -62 2 -29 -20 -47 -56 -47
-31 0 -64 21 -64 41 0 13 27 11 50 -3 17 -11 22 -10 29 1 9 15 4 41 -7 39 -21
-2 -32 4 -32 17 0 8 9 15 20 15 11 0 20 7 20 15 0 17 -25 20 -35 5 -3 -5 -13
-10 -21 -10 -17 0 -19 36 -1 43 20 8 71 7 85 -1z m152 -7 c0 -10 -11 -15 -35
-15 -41 0 -47 -17 -8 -22 34 -4 52 -44 37 -85 -7 -22 -17 -29 -41 -31 -38 -4
-73 13 -73 33 0 17 35 20 45 5 12 -19 35 -10 35 14 0 25 -25 43 -35 26 -4 -6
-13 -10 -21 -10 -10 0 -14 13 -14 50 l0 50 55 0 c42 0 55 -3 55 -15z m114 9
c26 -10 20 -68 -10 -103 l-26 -31 31 0 c21 0 31 -5 31 -15 0 -12 -13 -15 -60
-15 -36 0 -60 4 -60 11 0 6 16 30 35 53 37 45 45 76 20 76 -8 0 -15 -7 -15
-15 0 -8 -9 -15 -20 -15 -23 0 -27 29 -8 48 13 13 56 16 82 6z m156 -9 c0 -10
-11 -15 -35 -15 -23 0 -35 -5 -35 -14 0 -9 7 -12 20 -9 47 12 79 -60 43 -99
-18 -20 -73 -24 -91 -6 -18 18 -14 38 8 38 11 0 20 -4 20 -10 0 -16 27 -11 34
6 8 22 -13 49 -28 34 -5 -5 -19 -10 -29 -10 -16 0 -19 5 -13 31 3 17 6 40 6
50 0 16 8 19 50 19 38 0 50 -4 50 -15z m128 3 c19 -19 14 -54 -13 -86 -32 -38
-31 -42 5 -42 20 0 30 -5 30 -15 0 -12 -14 -15 -65 -15 l-65 0 12 25 c6 14 15
25 20 25 4 0 8 5 8 10 0 6 9 19 20 30 24 24 26 50 5 50 -9 0 -18 -7 -21 -15
-4 -8 -15 -15 -25 -15 -22 0 -23 1 -7 35 9 20 18 25 48 25 20 0 41 -5 48 -12z
m136 -4 c19 -18 21 -91 4 -129 -9 -20 -18 -25 -50 -25 -45 0 -55 27 -11 32 37
4 42 28 6 28 -37 0 -53 16 -53 55 0 17 5 36 12 43 17 17 74 15 92 -4z m130 10
c25 -10 20 -66 -9 -100 l-25 -29 30 -3 c18 -2 30 -9 30 -18 0 -11 -15 -14 -60
-14 -36 0 -60 4 -60 11 0 6 19 33 42 60 33 39 39 52 29 62 -10 9 -15 8 -25 -5
-14 -20 -46 -24 -46 -7 0 40 46 61 94 43z m236 -4 c29 -15 45 -75 30 -111 -38
-90 -166 -59 -163 39 2 65 74 104 133 72z m236 -11 c12 -14 19 -36 19 -64 0
-61 -24 -85 -87 -85 l-48 0 0 85 0 85 48 0 c37 0 54 -5 68 -21z m698 5 c9 -8
16 -20 16 -25 0 -12 -37 -12 -45 1 -9 14 -47 12 -43 -2 3 -7 22 -22 44 -33 65
-33 56 -95 -13 -95 -45 0 -73 16 -73 40 0 23 28 27 36 5 7 -18 54 -20 54 -2 0
7 -19 21 -42 32 -46 21 -60 53 -38 81 16 19 85 18 104 -2z m551 -69 c0 -81 -1
-85 -22 -85 -22 0 -23 4 -23 85 0 81 1 85 23 85 21 0 22 -4 22 -85z m-471 60
c-4 -9 0 -15 10 -15 9 0 16 -7 16 -15 0 -8 -7 -15 -15 -15 -9 0 -15 -9 -15
-24 0 -14 7 -31 15 -40 23 -23 18 -36 -15 -36 -16 0 -30 1 -30 3 0 1 -4 27 -9
59 -12 72 -6 98 25 98 17 0 22 -4 18 -15z m-660 -29 c-3 -8 -14 -16 -23 -19
-15 -4 -18 -14 -16 -51 1 -41 -1 -46 -21 -46 -20 0 -22 5 -23 65 l-1 65 45 0
c34 0 43 -3 39 -14z m106 -5 c5 -11 10 -29 10 -40 0 -17 -6 -21 -35 -21 -19 0
-35 -5 -35 -11 0 -7 11 -9 30 -5 25 5 30 2 30 -14 0 -16 -7 -20 -37 -20 -65 0
-94 55 -57 108 20 29 79 31 94 3z m124 -3 c3 -13 7 -42 8 -65 l3 -42 -55 2
-55 2 0 35 c0 32 3 35 33 38 17 2 32 8 32 13 0 6 -14 7 -35 3 -19 -3 -35 -2
-35 3 0 19 26 33 62 33 31 0 38 -4 42 -22z m204 10 c7 -6 12 -33 12 -64 0 -47
-2 -54 -20 -54 -17 0 -20 7 -20 44 0 45 -16 69 -30 46 -4 -7 -6 -30 -4 -51 4
-35 2 -39 -19 -39 -21 0 -24 4 -23 41 1 22 -1 45 -5 51 -13 21 -29 -4 -29 -48
0 -37 -3 -44 -20 -44 -18 0 -20 7 -20 64 l0 64 83 0 c45 0 88 -5 95 -10z m364
-5 c20 -18 24 -64 8 -94 -8 -14 -21 -19 -48 -19 -49 0 -62 14 -62 65 0 23 5
46 12 53 17 17 68 15 90 -5z m138 -2 c14 -27 13 -31 -10 -31 -11 0 -20 5 -20
10 0 22 -30 9 -36 -16 -9 -34 7 -50 35 -33 15 10 24 10 31 3 16 -16 -15 -44
-47 -44 -55 0 -81 60 -47 108 20 29 79 31 94 3z m318 7 c18 -18 14 -38 -8 -38
-11 0 -20 5 -20 10 0 6 -6 10 -14 10 -15 0 -27 -35 -19 -56 6 -16 33 -19 33
-4 0 6 9 10 20 10 23 0 24 -4 10 -31 -16 -29 -75 -26 -96 6 -17 26 -13 67 8
92 13 16 70 17 86 1z m130 0 c7 -7 12 -30 12 -53 0 -49 -13 -65 -56 -65 -42 0
-64 23 -64 65 0 18 7 41 16 49 18 19 75 21 92 4z m140 -9 c7 -18 8 -33 3 -91
0 -11 -9 -18 -21 -18 -17 0 -20 7 -20 50 0 38 -4 50 -15 50 -11 0 -15 -12 -15
-50 0 -43 -3 -50 -20 -50 -18 0 -20 7 -20 64 l0 64 51 0 c41 1 51 -3 57 -19z
m120 9 c21 -21 13 -30 -23 -24 -19 4 -35 5 -35 2 0 -3 16 -12 35 -20 57 -24
42 -76 -21 -76 -37 0 -64 24 -46 42 8 8 15 8 26 -1 9 -7 21 -11 28 -8 7 2 -4
11 -24 20 -59 25 -47 77 17 77 17 0 36 -5 43 -12z m-11743 -173 c0 -27 -3 -30
-30 -30 -21 0 -31 5 -33 18 -6 33 6 49 35 45 24 -3 28 -8 28 -33z"/>
<path d="M4330 450 c-38 -38 -14 -130 34 -130 42 0 62 102 28 133 -24 22 -38
21 -62 -3z"/>
<path d="M12070 435 c0 -46 3 -55 18 -55 26 0 42 20 42 51 0 43 -10 59 -36 59
-22 0 -24 -4 -24 -55z"/>
<path d="M13254 476 c-7 -19 3 -36 22 -36 10 0 14 8 12 22 -4 26 -26 36 -34
14z"/>
<path d="M13585 484 c-25 -25 -16 -83 16 -107 26 -19 28 -19 57 -1 17 9 33 28
37 41 6 24 -9 62 -29 75 -19 13 -64 9 -81 -8z m73 -6 c7 -7 12 -19 12 -27 0
-11 -4 -11 -19 3 -24 22 -41 13 -41 -19 0 -30 16 -41 36 -24 19 16 30 4 14
-16 -28 -34 -70 -10 -70 40 0 34 15 55 40 55 9 0 21 -5 28 -12z"/>
<path d="M13840 434 c0 -52 2 -55 22 -52 48 7 45 108 -4 108 -15 0 -18 -8 -18
-56z"/>
<path d="M14080 440 c0 -5 7 -10 15 -10 8 0 15 5 15 10 0 6 -7 10 -15 10 -8 0
-15 -4 -15 -10z"/>
<path d="M14207 403 c-12 -11 -8 -23 8 -23 8 0 15 7 15 15 0 16 -12 20 -23 8z"/>
<path d="M14770 415 c0 -29 3 -36 18 -33 11 2 17 13 17 33 0 20 -6 31 -17 33
-15 3 -18 -4 -18 -33z"/>
<path d="M15354 436 c-9 -24 0 -51 19 -54 14 -3 17 4 17 32 0 26 -4 36 -15 36
-9 0 -18 -6 -21 -14z"/>
</g>
</svg>
