<?xml version="1.0" standalone="no"?>
<!DOCTYPE svg PUBLIC "-//W3C//DTD SVG 20010904//EN"
 "http://www.w3.org/TR/2001/REC-SVG-20010904/DTD/svg10.dtd">
<svg version="1.0" xmlns="http://www.w3.org/2000/svg"
 width="251.000000pt" height="201.000000pt" viewBox="0 0 251.000000 201.000000"
 preserveAspectRatio="xMidYMid meet">

<g transform="translate(0.000000,201.000000) scale(0.100000,-0.100000)"
fill="#000000" stroke="none">
<path d="M1110 1481 c-89 -29 -141 -60 -206 -125 -98 -98 -144 -210 -144 -351
0 -141 46 -253 144 -351 98 -98 210 -144 351 -144 141 0 253 46 351 144 156
156 190 387 87 591 -33 64 -134 165 -198 198 -118 59 -272 75 -385 38z m301
-50 c31 -12 78 -37 104 -56 l49 -34 -29 -11 c-66 -25 -69 -63 -15 -172 27 -55
40 -94 40 -122 0 -41 -69 -296 -80 -296 -5 0 -160 457 -160 472 0 4 12 8 28
10 15 2 27 9 27 16 0 10 -29 13 -130 13 -100 0 -130 -3 -130 -13 0 -7 13 -15
30 -18 27 -5 32 -13 64 -99 l34 -94 -48 -148 c-27 -82 -52 -145 -56 -141 -7 7
-159 461 -159 475 0 4 14 7 31 7 23 0 30 4 27 17 -2 14 -15 16 -80 14 -49 -1
-78 2 -78 8 0 19 105 116 156 143 114 62 259 73 375 29z m285 -323 c43 -165
-31 -368 -169 -466 -26 -18 -47 -32 -47 -30 0 2 38 116 85 253 66 192 85 261
85 304 1 55 1 56 15 29 9 -15 22 -55 31 -90z m-742 -218 c57 -157 102 -287
100 -289 -2 -2 -30 13 -61 35 -165 113 -236 344 -162 529 6 17 13 26 15 20 3
-5 51 -138 108 -295z m381 -115 c36 -98 65 -184 65 -191 0 -31 -234 -44 -263
-15 -7 7 10 67 48 178 76 220 75 216 80 212 2 -3 33 -85 70 -184z"/>
</g>
</svg>
